Coordinates
version=1
nRows=43
nColumns=12
inDegrees=yes

Units are S.I. units (second, meters, Newtons, ...)
Angles are in degrees

endheader
time	SC_y	SC_z	SC_x	AC_y	AC_z	AC_x	GH_y	GH_z	GH_yy	EL_x	PS_y
       0.0              -37.92          36.14          36.39          58.27         -6.861         -13.84          107.4          39.12         -139.7          65.16          114.0
  0.004958              -37.92          36.13          36.39          58.27          -6.86         -13.83          107.4          39.11         -139.6          65.16          114.0
  0.009915              -37.92          36.13          36.39          58.27         -6.859         -13.83          107.3          39.11         -139.6          65.15          114.0
   0.01487              -37.91          36.12          36.39          58.28         -6.858         -13.83          107.3          39.11         -139.6          65.14          114.0
   0.01983              -37.91          36.12          36.39          58.28         -6.857         -13.82          107.2          39.11         -139.6          65.13          114.0
   0.02479              -37.91          36.11          36.38          58.28         -6.856         -13.82          107.2          39.11         -139.6          65.12          114.0
   0.02975               -37.9           36.1          36.38          58.28         -6.854         -13.82          107.2           39.1         -139.6          65.11          114.0
    0.0347               -37.9           36.1          36.38          58.28         -6.853         -13.81          107.1           39.1         -139.6           65.1          114.0
   0.03966               -37.9          36.09          36.38          58.29         -6.851         -13.81          107.1           39.1         -139.5          65.08          114.0
   0.04462              -37.89          36.08          36.38          58.29          -6.85          -13.8          107.0          39.09         -139.5          65.07          114.0
   0.04958              -37.89          36.07          36.37          58.29         -6.848         -13.79          107.0          39.09         -139.5          65.06          113.9
   0.05453              -37.88          36.06          36.37          58.29         -6.846         -13.79          106.9          39.09         -139.5          65.04          113.9
   0.05949              -37.88          36.05          36.37           58.3         -6.844         -13.78          106.8          39.08         -139.5          65.03          113.9
   0.06445              -37.87          36.04          36.37           58.3         -6.842         -13.77          106.8          39.08         -139.4          65.01          113.9
   0.06941              -37.86          36.03          36.36           58.3         -6.839         -13.77          106.7          39.08         -139.4          64.99          113.9
   0.07437              -37.86          36.02          36.36          58.31         -6.837         -13.76          106.6          39.07         -139.4          64.97          113.9
   0.07932              -37.85           36.0          36.36          58.31         -6.834         -13.75          106.5          39.07         -139.3          64.94          113.9
   0.08428              -37.84          35.99          36.35          58.31         -6.831         -13.74          106.4          39.06         -139.3          64.92          113.9
   0.08924              -37.83          35.97          36.35          58.32         -6.828         -13.73          106.3          39.05         -139.3          64.89          113.8
    0.0942              -37.82          35.95          36.34          58.32         -6.824         -13.71          106.2          39.05         -139.2          64.86          113.8
   0.09915              -37.81          35.93          36.34          58.33          -6.82          -13.7          106.0          39.04         -139.2          64.83          113.8
    0.1041               -37.8          35.91          36.33          58.33         -6.816         -13.69          105.9          39.03         -139.1          64.79          113.8
    0.1091              -37.78          35.88          36.32          58.34         -6.811         -13.67          105.7          39.02         -139.0          64.75          113.8
     0.114              -37.77          35.85          36.32          58.35         -6.805         -13.65          105.6          39.01         -139.0          64.71          113.7
     0.119              -37.75          35.82          36.31          58.36         -6.799         -13.63          105.4           39.0         -138.9          64.66          113.7
    0.1239              -37.73          35.79           36.3          58.37         -6.793         -13.61          105.2          38.99         -138.8          64.61          113.7
    0.1289              -37.71          35.75          36.29          58.38         -6.785         -13.58          104.9          38.98         -138.7          64.55          113.6
    0.1339              -37.69          35.71          36.28          58.39         -6.777         -13.56          104.6          38.96         -138.6          64.48          113.6
    0.1388              -37.66          35.66          36.27           58.4         -6.767         -13.52          104.3          38.94         -138.5           64.4          113.6
    0.1438              -37.63          35.61          36.25          58.42         -6.756         -13.49          104.0          38.92         -138.4          64.31          113.5
    0.1487               -37.6          35.54          36.24          58.43         -6.744         -13.45          103.6           38.9         -138.2          64.21          113.4
    0.1537              -37.56          35.47          36.22          58.45          -6.73          -13.4          103.1          38.87         -138.1          64.09          113.4
    0.1586              -37.51          35.39          36.19          58.48         -6.713         -13.34          102.6          38.84         -137.9          63.96          113.3
    0.1636              -37.46          35.29          36.17           58.5         -6.694         -13.28          101.9          38.81         -137.6          63.81          113.2
    0.1686               -37.4          35.18          36.14          58.53         -6.672         -13.21          101.2          38.77         -137.4          63.63          113.1
    0.1735              -37.33          35.04          36.11          58.57         -6.646         -13.12          100.4          38.72         -137.1          63.41          113.0
    0.1785              -37.24          34.88          36.06          58.61         -6.615         -13.01          99.34          38.66         -136.7          63.16          112.8
    0.1834              -37.14          34.69          36.01          58.67         -6.577         -12.89          98.12          38.59         -136.2          62.85          112.6
    0.1884              -37.01          34.46          35.95          58.73         -6.532         -12.74          96.64          38.51         -135.7          62.48          112.4
    0.1933              -36.86          34.18          35.88          58.81         -6.477         -12.55          94.84          38.41         -135.0          62.03          112.1
    0.1983              -36.67          33.84          35.79           58.9         -6.408         -12.33          92.61          38.28         -134.2          61.48          111.8
    0.2033              -36.43           33.4          35.68          59.02         -6.323         -12.04          89.83          38.13         -133.2          60.79          111.4
    0.2082              -36.14          32.86          35.53          59.17         -6.216         -11.68          86.34          37.93         -131.9          59.91          110.9
